<svg width="34" height="34" viewBox="0 0 34 34" fill="none" xmlns="http://www.w3.org/2000/svg">
<path fill-rule="evenodd" clip-rule="evenodd" d="M11.3333 7.08321H8.5C7.7176 7.08321 7.08333 7.71747 7.08333 8.49988V11.3332C7.08333 12.1156 7.7176 12.7499 8.5 12.7499H11.3333C12.1157 12.7499 12.75 12.1156 12.75 11.3332V8.49988C12.75 7.71747 12.1157 7.08321 11.3333 7.08321ZM8.5 4.24988C6.15279 4.24988 4.25 6.15267 4.25 8.49988V11.3332C4.25 13.6804 6.15279 15.5832 8.5 15.5832H11.3333C13.6805 15.5832 15.5833 13.6804 15.5833 11.3332V8.49988C15.5833 6.15267 13.6805 4.24988 11.3333 4.24988H8.5Z" fill="white"/>
<path fill-rule="evenodd" clip-rule="evenodd" d="M11.3333 21.2498H8.5C7.7176 21.2498 7.08333 21.8841 7.08333 22.6665V25.4998C7.08333 26.2822 7.7176 26.9165 8.5 26.9165H11.3333C12.1157 26.9165 12.75 26.2822 12.75 25.4998V22.6665C12.75 21.8841 12.1157 21.2498 11.3333 21.2498ZM8.5 18.4165C6.15279 18.4165 4.25 20.3193 4.25 22.6665V25.4998C4.25 27.847 6.15279 29.7498 8.5 29.7498H11.3333C13.6805 29.7498 15.5833 27.847 15.5833 25.4998V22.6665C15.5833 20.3193 13.6805 18.4165 11.3333 18.4165H8.5Z" fill="white"/>
<path fill-rule="evenodd" clip-rule="evenodd" d="M25.5 7.08321H22.6667C21.8843 7.08321 21.25 7.71747 21.25 8.49988V11.3332C21.25 12.1156 21.8843 12.7499 22.6667 12.7499H25.5C26.2824 12.7499 26.9167 12.1156 26.9167 11.3332V8.49988C26.9167 7.71747 26.2824 7.08321 25.5 7.08321ZM22.6667 4.24988C20.3195 4.24988 18.4167 6.15267 18.4167 8.49988V11.3332C18.4167 13.6804 20.3195 15.5832 22.6667 15.5832H25.5C27.8472 15.5832 29.75 13.6804 29.75 11.3332V8.49988C29.75 6.15267 27.8472 4.24988 25.5 4.24988H22.6667Z" fill="white"/>
<path fill-rule="evenodd" clip-rule="evenodd" d="M25.5 21.2498H22.6667C21.8843 21.2498 21.25 21.8841 21.25 22.6665V25.4998C21.25 26.2822 21.8843 26.9165 22.6667 26.9165H25.5C26.2824 26.9165 26.9167 26.2822 26.9167 25.4998V22.6665C26.9167 21.8841 26.2824 21.2498 25.5 21.2498ZM22.6667 18.4165C20.3195 18.4165 18.4167 20.3193 18.4167 22.6665V25.4998C18.4167 27.847 20.3195 29.7498 22.6667 29.7498H25.5C27.8472 29.7498 29.75 27.847 29.75 25.4998V22.6665C29.75 20.3193 27.8472 18.4165 25.5 18.4165H22.6667Z" fill="white"/>
</svg>
